<svg width="522" height="522" viewBox="0 0 522 522" fill="none" xmlns="http://www.w3.org/2000/svg">
<path d="M140 0H10C4.47715 0 0 4.47715 0 10V140C0 145.523 4.47715 150 10 150C15.5228 150 20 145.523 20 140V34.1422L487.858 502H382C376.477 502 372 506.477 372 512C372 517.523 376.477 522 382 522H512C517.523 522 522 517.523 522 512V382C522 376.477 517.523 372 512 372C506.477 372 502 376.477 502 382V487.858L34.1421 20H140C145.523 20 150 15.5228 150 10C150 4.47715 145.523 0 140 0Z" fill="white"/>
</svg>
