<svg width="1774" height="366" viewBox="0 0 1774 366" fill="none" xmlns="http://www.w3.org/2000/svg">
<path d="M54.1892 311.113C51.5203 303.45 52.6046 299.63 54.9753 292.886L168.933 259.306C189.717 241.865 200.34 226.812 199.356 210.684C195.316 162.715 172.893 134.895 130.01 132.166L10.7326 168.791C6.75342 167.928 -1.50767 162.18 2.39807 155.893C4.5838 111.95 18.3567 85.5268 64.0719 44.1732C136.568 -2.59401 184.498 2.71005 264.548 45.3989C311.784 86.9904 342.372 101.296 404.56 110.881L1369.74 109.47C1427.37 95.6359 1445.65 83.1645 1473.09 59.2C1571.71 -22.4911 1625.44 -12.8159 1719.9 52.7641C1724.31 58.1565 1725.46 61.6936 1719.88 70.9895L1600.98 109.512C1565.76 158.299 1564.33 184.088 1615.24 225.678C1629.61 241.3 1668.06 231.132 1758.04 199.65C1764.82 197.648 1768.13 198.58 1772.84 205.324C1768.59 247.842 1756.91 270.481 1722.95 309.053C1652.11 366.46 1606.44 367.553 1516.37 324.543C1464.43 278.873 1432.18 263.941 1369.53 254.514L404.727 256.304C365.735 264.344 344.279 272.813 307.458 302.009C272.826 337.963 242.387 357.59 208.401 361.897C145.935 371.547 93.0552 355.291 54.1892 311.113Z" fill="#373737" stroke="white"/>
</svg>
