<svg width="501" height="508" viewBox="0 0 501 508" fill="none" xmlns="http://www.w3.org/2000/svg">
<path d="M125.042 40.4951C5.46858 109.531 -35.5002 262.428 33.5354 382.001C102.571 501.575 255.469 542.543 375.042 473.508C454.822 427.447 499.61 344.054 500.08 258.134L399.97 262.239C398.179 312.165 371.498 360.084 325.042 386.905C253.298 428.327 161.559 403.745 120.138 332.001C78.7166 260.258 103.298 168.519 175.042 127.098C215.238 103.89 261.711 101.402 302.094 116.318L251.342 155.262C240.478 163.598 244.552 180.857 257.998 183.454L442.675 219.129C452.026 220.935 460.853 214.162 461.528 204.662L474.867 17.0444C475.838 3.38463 460.222 -5.01776 449.358 3.31878L389.364 49.354C312.679 -2.01469 210.374 -8.77179 125.042 40.4951Z" fill="#003C79"/>
</svg>
