<svg width="502" height="508" viewBox="0 0 502 508" fill="none" xmlns="http://www.w3.org/2000/svg">
<path d="M126.001 40.4941C6.42757 109.53 -34.5412 262.427 34.4944 382C103.53 501.574 256.428 542.542 376.001 473.507C455.781 427.446 500.569 344.053 501.039 258.133L400.929 262.238C399.138 312.164 372.457 360.083 326.001 386.904C254.257 428.326 162.518 403.744 121.097 332C79.6756 260.257 104.257 168.518 176.001 127.097C216.197 103.889 262.67 101.401 303.053 116.317L252.301 155.261C241.437 163.597 245.511 180.856 258.957 183.453L443.634 219.128C452.985 220.934 461.812 214.161 462.487 204.661L475.826 17.0434C476.797 3.38365 461.181 -5.01874 450.317 3.31781L390.323 49.353C313.638 -2.01567 211.333 -8.77277 126.001 40.4941Z" fill="white"/>
</svg>
